<?xml version="1.0" encoding="UTF-8" standalone="no"?><!DOCTYPE svg PUBLIC "-//W3C//DTD SVG 1.1//EN" "http://www.w3.org/Graphics/SVG/1.1/DTD/svg11.dtd"><svg width="100%" height="100%" viewBox="0 0 200 26" version="1.1" xmlns="http://www.w3.org/2000/svg" xmlns:xlink="http://www.w3.org/1999/xlink" xml:space="preserve" xmlns:serif="http://www.serif.com/" style="fill-rule:evenodd;clip-rule:evenodd;stroke-linejoin:round;stroke-miterlimit:2;"><g><path d="M0.098,23.939l0,-5.243c0.951,0.797 1.983,1.395 3.097,1.794c1.114,0.399 2.239,0.598 3.376,0.598c0.666,-0 1.248,-0.06 1.745,-0.18c0.497,-0.12 0.912,-0.287 1.245,-0.5c0.333,-0.213 0.582,-0.464 0.745,-0.754c0.164,-0.289 0.246,-0.603 0.246,-0.942c0,-0.459 -0.131,-0.868 -0.393,-1.229c-0.262,-0.36 -0.62,-0.693 -1.073,-0.999c-0.454,-0.306 -0.992,-0.601 -1.614,-0.885c-0.623,-0.284 -1.295,-0.574 -2.016,-0.869c-1.835,-0.764 -3.203,-1.698 -4.104,-2.801c-0.901,-1.104 -1.352,-2.436 -1.352,-3.998c0,-1.224 0.246,-2.275 0.737,-3.155c0.492,-0.879 1.161,-1.603 2.008,-2.171c0.846,-0.568 1.827,-0.986 2.941,-1.253c1.114,-0.268 2.294,-0.402 3.539,-0.402c1.223,0 2.308,0.074 3.252,0.222c0.945,0.147 1.817,0.374 2.614,0.68l-0,4.899c-0.393,-0.273 -0.822,-0.514 -1.286,-0.721c-0.465,-0.208 -0.942,-0.38 -1.434,-0.516c-0.492,-0.137 -0.98,-0.238 -1.467,-0.303c-0.486,-0.066 -0.947,-0.099 -1.384,-0.099c-0.601,0 -1.147,0.058 -1.639,0.172c-0.491,0.115 -0.906,0.276 -1.245,0.484c-0.339,0.207 -0.601,0.456 -0.786,0.745c-0.186,0.29 -0.279,0.615 -0.279,0.975c0,0.393 0.104,0.746 0.311,1.057c0.208,0.311 0.503,0.606 0.885,0.885c0.382,0.278 0.847,0.551 1.393,0.819c0.546,0.268 1.163,0.544 1.851,0.828c0.94,0.393 1.784,0.811 2.532,1.253c0.748,0.442 1.39,0.942 1.925,1.499c0.536,0.557 0.945,1.194 1.229,1.909c0.284,0.716 0.426,1.549 0.426,2.499c0,1.311 -0.248,2.411 -0.745,3.302c-0.497,0.89 -1.172,1.611 -2.024,2.162c-0.852,0.552 -1.843,0.948 -2.974,1.188c-1.13,0.241 -2.324,0.361 -3.58,0.361c-1.289,-0 -2.515,-0.109 -3.679,-0.328c-1.163,-0.218 -2.171,-0.546 -3.023,-0.983Z" style="fill:url(#_Linear1);fill-rule:nonzero;"/><path d="M28.543,24.644c-0.764,0.404 -1.917,0.606 -3.457,0.606c-3.648,-0 -5.473,-1.895 -5.473,-5.686l0,-7.685l-2.72,0l0,-3.817l2.72,-0l0,-3.622l5.162,-1.474l-0,5.096l3.768,-0l0,3.817l-3.768,0l-0,6.784c-0,1.748 0.693,2.622 2.081,2.622c0.546,-0 1.108,-0.159 1.687,-0.476l0,3.835Z" style="fill:url(#_Linear2);fill-rule:nonzero;"/><path d="M39.194,25.25c-2.797,-0 -4.995,-0.784 -6.595,-2.351c-1.601,-1.568 -2.401,-3.695 -2.401,-6.383c0,-2.774 0.83,-4.945 2.491,-6.513c1.66,-1.567 3.905,-2.351 6.734,-2.351c2.786,-0 4.97,0.784 6.554,2.351c1.584,1.568 2.376,3.641 2.376,6.219c0,2.785 -0.816,4.986 -2.449,6.603c-1.633,1.617 -3.87,2.425 -6.71,2.425Zm0.131,-13.633c-1.224,0 -2.174,0.421 -2.851,1.262c-0.677,0.841 -1.016,2.032 -1.016,3.572c-0,3.222 1.3,4.834 3.9,4.834c2.479,-0 3.719,-1.655 3.719,-4.965c0,-3.135 -1.251,-4.703 -3.752,-4.703Z" style="fill:url(#_Linear3);fill-rule:nonzero;"/><path d="M64.427,24.234c-1.168,0.677 -2.856,1.016 -5.063,1.016c-2.578,-0 -4.664,-0.781 -6.259,-2.343c-1.595,-1.562 -2.392,-3.578 -2.392,-6.046c-0,-2.851 0.855,-5.099 2.564,-6.743c1.71,-1.644 3.995,-2.466 6.857,-2.466c1.978,-0 3.409,0.262 4.293,0.786l0,4.392c-1.081,-0.809 -2.288,-1.213 -3.621,-1.213c-1.485,0 -2.662,0.434 -3.531,1.303c-0.868,0.868 -1.303,2.067 -1.303,3.596c0,1.486 0.416,2.652 1.246,3.499c0.83,0.846 1.971,1.27 3.424,1.27c1.289,-0 2.551,-0.405 3.785,-1.213l0,4.162Z" style="fill:url(#_Linear4);fill-rule:nonzero;"/><path d="M84.631,24.84l-6.211,0l-5.358,-8.324l-0.065,0l-0,8.324l-5.178,0l0,-24.84l5.178,0l-0,15.812l0.065,-0l4.998,-7.75l6.144,-0l-6.013,7.881l6.44,8.897Z" style="fill:url(#_Linear5);fill-rule:nonzero;"/><path d="M103.932,24.005c-1.715,0.83 -3.954,1.245 -6.718,1.245c-3.604,-0 -6.439,-1.06 -8.504,-3.179c-2.064,-2.119 -3.096,-4.943 -3.096,-8.471c-0,-3.758 1.16,-6.806 3.482,-9.143c2.321,-2.338 5.333,-3.507 9.036,-3.507c2.294,0 4.227,0.29 5.8,0.869l0,5.096c-1.573,-0.94 -3.364,-1.41 -5.374,-1.41c-2.206,0 -3.987,0.694 -5.342,2.081c-1.354,1.388 -2.031,3.267 -2.031,5.637c-0,2.272 0.639,4.083 1.917,5.432c1.278,1.349 2.998,2.023 5.161,2.023c2.065,0 3.954,-0.502 5.669,-1.507l0,4.834Z" style="fill:url(#_Linear6);fill-rule:nonzero;"/><path d="M115.517,25.25c-2.796,-0 -4.995,-0.784 -6.595,-2.351c-1.6,-1.568 -2.401,-3.695 -2.401,-6.383c0,-2.774 0.831,-4.945 2.491,-6.513c1.66,-1.567 3.905,-2.351 6.734,-2.351c2.786,-0 4.971,0.784 6.555,2.351c1.583,1.568 2.375,3.641 2.375,6.219c0,2.785 -0.816,4.986 -2.449,6.603c-1.633,1.617 -3.87,2.425 -6.71,2.425Zm0.131,-13.633c-1.223,0 -2.174,0.421 -2.851,1.262c-0.677,0.841 -1.016,2.032 -1.016,3.572c0,3.222 1.3,4.834 3.9,4.834c2.479,-0 3.719,-1.655 3.719,-4.965c0,-3.135 -1.25,-4.703 -3.752,-4.703Z" style="fill:url(#_Linear7);fill-rule:nonzero;"/><path d="M144.241,24.84l-5.162,0l0,-9.323c0,-2.6 -0.928,-3.9 -2.785,-3.9c-0.896,0 -1.633,0.344 -2.212,1.033c-0.579,0.688 -0.869,1.562 -0.869,2.621l0,9.569l-5.178,0l0,-16.778l5.178,-0l0,2.654l0.066,0c1.234,-2.043 3.031,-3.064 5.391,-3.064c3.714,-0 5.571,2.305 5.571,6.915l-0,10.273Z" style="fill:url(#_Linear8);fill-rule:nonzero;"/><path d="M158.479,24.644c-0.764,0.404 -1.917,0.606 -3.457,0.606c-3.648,-0 -5.473,-1.895 -5.473,-5.686l0,-7.685l-2.72,0l0,-3.817l2.72,-0l0,-3.622l5.162,-1.474l-0,5.096l3.768,-0l0,3.817l-3.768,0l-0,6.784c-0,1.748 0.693,2.622 2.081,2.622c0.546,-0 1.108,-0.159 1.687,-0.476l0,3.835Z" style="fill:url(#_Linear9);fill-rule:nonzero;"/><path d="M172.341,12.731c-0.622,-0.338 -1.349,-0.508 -2.179,-0.508c-1.125,0 -2.004,0.413 -2.638,1.238c-0.633,0.824 -0.95,1.947 -0.95,3.367l-0,8.012l-5.178,0l0,-16.778l5.178,-0l-0,3.113l0.065,-0c0.82,-2.272 2.294,-3.408 4.424,-3.408c0.547,-0 0.973,0.065 1.278,0.196l0,4.768Z" style="fill:url(#_Linear10);fill-rule:nonzero;"/><path d="M182.304,25.25c-2.797,-0 -4.995,-0.784 -6.595,-2.351c-1.601,-1.568 -2.401,-3.695 -2.401,-6.383c0,-2.774 0.83,-4.945 2.491,-6.513c1.66,-1.567 3.905,-2.351 6.734,-2.351c2.786,-0 4.97,0.784 6.554,2.351c1.584,1.568 2.376,3.641 2.376,6.219c0,2.785 -0.816,4.986 -2.449,6.603c-1.633,1.617 -3.87,2.425 -6.71,2.425Zm0.131,-13.633c-1.224,0 -2.174,0.421 -2.851,1.262c-0.677,0.841 -1.016,2.032 -1.016,3.572c-0,3.222 1.3,4.834 3.9,4.834c2.479,-0 3.719,-1.655 3.719,-4.965c0,-3.135 -1.251,-4.703 -3.752,-4.703Z" style="fill:url(#_Linear11);fill-rule:nonzero;"/><rect x="194.822" y="0" width="5.178" height="24.84" style="fill:url(#_Linear12);fill-rule:nonzero;"/></g><defs><linearGradient id="_Linear1" x1="0" y1="0" x2="1" y2="0" gradientUnits="userSpaceOnUse" gradientTransform="matrix(9.58961e-15,-156.61,19.7719,1.21068e-15,100,143.826)"><stop offset="0" style="stop-color:#141367;stop-opacity:1"/><stop offset="1" style="stop-color:#1a83ff;stop-opacity:1"/></linearGradient><linearGradient id="_Linear2" x1="0" y1="0" x2="1" y2="0" gradientUnits="userSpaceOnUse" gradientTransform="matrix(9.58961e-15,-156.61,19.7719,1.21068e-15,100,143.826)"><stop offset="0" style="stop-color:#141367;stop-opacity:1"/><stop offset="1" style="stop-color:#1a83ff;stop-opacity:1"/></linearGradient><linearGradient id="_Linear3" x1="0" y1="0" x2="1" y2="0" gradientUnits="userSpaceOnUse" gradientTransform="matrix(9.58961e-15,-156.61,19.7719,1.21068e-15,100,143.826)"><stop offset="0" style="stop-color:#141367;stop-opacity:1"/><stop offset="1" style="stop-color:#1a83ff;stop-opacity:1"/></linearGradient><linearGradient id="_Linear4" x1="0" y1="0" x2="1" y2="0" gradientUnits="userSpaceOnUse" gradientTransform="matrix(9.58961e-15,-156.61,19.7719,1.21068e-15,100,143.826)"><stop offset="0" style="stop-color:#141367;stop-opacity:1"/><stop offset="1" style="stop-color:#1a83ff;stop-opacity:1"/></linearGradient><linearGradient id="_Linear5" x1="0" y1="0" x2="1" y2="0" gradientUnits="userSpaceOnUse" gradientTransform="matrix(9.58961e-15,-156.61,19.7719,1.21068e-15,100,143.826)"><stop offset="0" style="stop-color:#141367;stop-opacity:1"/><stop offset="1" style="stop-color:#1a83ff;stop-opacity:1"/></linearGradient><linearGradient id="_Linear6" x1="0" y1="0" x2="1" y2="0" gradientUnits="userSpaceOnUse" gradientTransform="matrix(9.58961e-15,-156.61,19.7719,1.21068e-15,100,143.826)"><stop offset="0" style="stop-color:#141367;stop-opacity:1"/><stop offset="1" style="stop-color:#1a83ff;stop-opacity:1"/></linearGradient><linearGradient id="_Linear7" x1="0" y1="0" x2="1" y2="0" gradientUnits="userSpaceOnUse" gradientTransform="matrix(9.58961e-15,-156.61,19.7719,1.21068e-15,100,143.826)"><stop offset="0" style="stop-color:#141367;stop-opacity:1"/><stop offset="1" style="stop-color:#1a83ff;stop-opacity:1"/></linearGradient><linearGradient id="_Linear8" x1="0" y1="0" x2="1" y2="0" gradientUnits="userSpaceOnUse" gradientTransform="matrix(9.58961e-15,-156.61,19.7719,1.21068e-15,100,143.826)"><stop offset="0" style="stop-color:#141367;stop-opacity:1"/><stop offset="1" style="stop-color:#1a83ff;stop-opacity:1"/></linearGradient><linearGradient id="_Linear9" x1="0" y1="0" x2="1" y2="0" gradientUnits="userSpaceOnUse" gradientTransform="matrix(9.58961e-15,-156.61,19.7719,1.21068e-15,100,143.826)"><stop offset="0" style="stop-color:#141367;stop-opacity:1"/><stop offset="1" style="stop-color:#1a83ff;stop-opacity:1"/></linearGradient><linearGradient id="_Linear10" x1="0" y1="0" x2="1" y2="0" gradientUnits="userSpaceOnUse" gradientTransform="matrix(9.58961e-15,-156.61,19.7719,1.21068e-15,100,143.826)"><stop offset="0" style="stop-color:#141367;stop-opacity:1"/><stop offset="1" style="stop-color:#1a83ff;stop-opacity:1"/></linearGradient><linearGradient id="_Linear11" x1="0" y1="0" x2="1" y2="0" gradientUnits="userSpaceOnUse" gradientTransform="matrix(9.58961e-15,-156.61,19.7719,1.21068e-15,100,143.826)"><stop offset="0" style="stop-color:#141367;stop-opacity:1"/><stop offset="1" style="stop-color:#1a83ff;stop-opacity:1"/></linearGradient><linearGradient id="_Linear12" x1="0" y1="0" x2="1" y2="0" gradientUnits="userSpaceOnUse" gradientTransform="matrix(9.58961e-15,-156.61,19.7719,1.21068e-15,100,143.826)"><stop offset="0" style="stop-color:#141367;stop-opacity:1"/><stop offset="1" style="stop-color:#1a83ff;stop-opacity:1"/></linearGradient></defs></svg>